<?xml version="1.0" encoding="utf-8"?>
<!-- Generator: Adobe Illustrator 24.1.0, SVG Export Plug-In . SVG Version: 6.00 Build 0)  -->
<svg version="1.1" xmlns="http://www.w3.org/2000/svg" xmlns:xlink="http://www.w3.org/1999/xlink" x="0px" y="0px"
	 viewBox="0 0 500 500" style="enable-background:new 0 0 500 500;" xml:space="preserve">
<style type="text/css">
	.st0{fill:#F9F9F9;}
	.st1{opacity:0.25;fill:url(#XMLID_4_);}
	.st2{opacity:0.25;fill:url(#XMLID_5_);}
	.st3{fill:#FFBE00;}
	.st4{fill:url(#XMLID_6_);}
	.st5{opacity:0.7;fill:url(#XMLID_7_);}
	.st6{fill:url(#XMLID_8_);}
	.st7{fill:url(#XMLID_9_);}
	.st8{fill:url(#XMLID_10_);}
	.st9{fill:#003AA5;}
	.st10{fill:#C2E1FE;}
	.st11{fill:#259AFF;}
	.st12{opacity:0.2;fill:#259AFF;}
	.st13{fill:#E3F1FE;}
	.st14{opacity:0.5;fill:#E3F1FE;}
	.st15{opacity:0.8;fill:#259AFF;}
	.st16{opacity:0.8;}
	.st17{opacity:0.5;}
	.st18{fill:#269AFF;}
	.st19{fill:url(#XMLID_19_);}
	.st20{opacity:0.7;}
	.st21{opacity:0.6;fill:#C2E1FE;}
	.st22{opacity:0.3;fill:#F9F9F9;}
</style>
<g id="BACKGROUND">
	<g id="XMLID_2_">
	</g>
	<rect id="XMLID_83_" x="0" y="0" class="st0" width="500" height="500"/>
</g>
<g id="OBJECTS">
	<g id="XMLID_1342_">
	</g>
	<g id="XMLID_285_">
		<g id="XMLID_158_">
			<linearGradient id="XMLID_4_" gradientUnits="userSpaceOnUse" x1="249.9998" y1="399.1396" x2="249.9998" y2="50.5414">
				<stop  offset="0" style="stop-color:#C2E1FE"/>
				<stop  offset="1" style="stop-color:#259AFF;stop-opacity:0"/>
			</linearGradient>
			<path id="XMLID_157_" class="st1" d="M463.25,195.27c-25.24-72-114-43.81-167.85-48.81c-57.99-5.39-29.17-42.49-104.83-71.12
				C121.2,49.09,14.38,130.2,33.91,254.53C58.03,407.99,290.05,430.91,386,370.45c67.23-42.36,81.66-109.9,82.4-140.91
				C468.68,217.9,467.1,206.26,463.25,195.27z"/>
			<linearGradient id="XMLID_5_" gradientUnits="userSpaceOnUse" x1="249.0317" y1="402.9268" x2="249.0317" y2="22.3487">
				<stop  offset="0" style="stop-color:#C2E1FE"/>
				<stop  offset="1" style="stop-color:#259AFF;stop-opacity:0"/>
			</linearGradient>
			<path id="XMLID_86_" class="st2" d="M408.6,69.86c-8.38-8.09-18.02-14.82-28.71-19.43c-70.07-30.19-109.44,54.2-149.59,90.43
				c-43.24,39.02-52.95,11.49-127.04,43.97c-74.1,32.48-89.91,182.27,38.54,212.14c175.55,40.83,278.58-75.45,304.05-175.95
				C465.68,142.8,430.91,91.4,408.6,69.86z"/>
		</g>
		<g id="XMLID_1_">
			<g id="XMLID_298_">
				<circle id="XMLID_363_" class="st3" cx="303.1" cy="231.3" r="18.07"/>
				<path id="XMLID_362_" class="st3" d="M280.6,213.23c0,4.21-3.41,7.63-7.63,7.63c4.21,0,7.63,3.41,7.63,7.62
					c0-4.21,3.41-7.62,7.63-7.62C284.01,220.86,280.6,217.44,280.6,213.23z"/>
				<path id="XMLID_361_" class="st3" d="M210.82,303.76c0,4.21-3.41,7.63-7.63,7.63c4.21,0,7.63,3.41,7.63,7.63
					c0-4.21,3.41-7.63,7.63-7.63C214.23,311.39,210.82,307.98,210.82,303.76z"/>
			</g>
			<g id="XMLID_308_">
				
					<linearGradient id="XMLID_6_" gradientUnits="userSpaceOnUse" x1="340.405" y1="141.0098" x2="433.1994" y2="267.5478" gradientTransform="matrix(-0.9194 0.3934 0.3934 0.9194 651.8652 -89.4339)">
					<stop  offset="0" style="stop-color:#FDDA42"/>
					<stop  offset="1" style="stop-color:#E5A003"/>
				</linearGradient>
				<path id="XMLID_311_" class="st4" d="M334.99,293.54c-1.45-8.79,1.14-18.23,7.84-24.33c3.99-3.63,11.25-5.5,12.49-11.38
					c1.07-5.06-1.87-10.07-2.58-15.01c-1.25-8.73,1.99-17.95,8.35-24.04c4.33-4.14,10.56-6.16,14.02-11.21
					c3.2-4.66,3.66-10.55,4.75-15.94c1.57-7.77,6.95-18.92,16.74-16.61c8.29,1.95,11.08,12.12,11.21,19.48
					c0.05,2.63-0.18,5.27-0.69,7.85c-0.59,2.98-1.87,5.83-2.29,8.83c-0.45,3.18-0.62,6.89,0.27,10c0.8,2.81,2.17,5.43,2.96,8.25
					c2.9,10.37,0.12,21.45-4.97,30.69c-3.38,6.15-5.84,11.19-5.07,18.4c0.6,5.6,2.16,11.13,1.74,16.81
					c-0.83,11.19-9.04,19.79-18.91,24.16c-0.27,0.12-0.56,0.1-0.82,0C361,325.35,339.11,313.4,334.99,293.54z"/>
				
					<linearGradient id="XMLID_7_" gradientUnits="userSpaceOnUse" x1="340.405" y1="141.0098" x2="433.1994" y2="267.5478" gradientTransform="matrix(-0.9194 0.3934 0.3934 0.9194 651.8652 -89.4339)">
					<stop  offset="0" style="stop-color:#FDDA42"/>
					<stop  offset="1" style="stop-color:#E5A003"/>
				</linearGradient>
				<path id="XMLID_310_" class="st5" d="M334.99,293.54c-1.45-8.79,1.14-18.23,7.84-24.33c3.99-3.63,11.25-5.5,12.49-11.38
					c1.07-5.06-1.87-10.07-2.58-15.01c-1.25-8.73,1.99-17.95,8.35-24.04c4.33-4.14,10.56-6.16,14.02-11.21
					c3.2-4.66,3.66-10.55,4.75-15.94c1.57-7.77,6.95-18.92,16.74-16.61c8.29,1.95,11.08,12.12,11.21,19.48
					c0.05,2.63-0.18,5.27-0.69,7.85c-0.59,2.98-1.87,5.83-2.29,8.83c-0.45,3.18-0.62,6.89,0.27,10c0.8,2.81,2.17,5.43,2.96,8.25
					c2.9,10.37,0.12,21.45-4.97,30.69c-3.38,6.15-5.84,11.19-5.07,18.4c0.6,5.6,2.16,11.13,1.74,16.81
					c-0.83,11.19-9.04,19.79-18.91,24.16c-0.27,0.12-0.56,0.1-0.82,0C361,325.35,339.11,313.4,334.99,293.54z"/>
				
					<linearGradient id="XMLID_8_" gradientUnits="userSpaceOnUse" x1="389.2657" y1="266.8068" x2="389.2657" y2="160.9421" gradientTransform="matrix(-0.9194 0.3934 0.3934 0.9194 651.8652 -89.4339)">
					<stop  offset="0" style="stop-color:#FDDA42"/>
					<stop  offset="1" style="stop-color:#E5A003"/>
				</linearGradient>
				<path id="XMLID_309_" class="st6" d="M358.37,332.07c2.92-11.08,5.83-22.16,8.72-33.25c-0.01-0.01-0.02-0.02-0.02-0.03
					c-4.95-9.14-8.55-18.85-10.79-29c-0.29-1.32,1.8-1.61,2.09-0.28c2.03,9.18,5.23,17.96,9.51,26.29
					c2.45-9.39,4.89-18.79,7.32-28.19c-0.07-0.07-0.14-0.15-0.19-0.25c-5.07-9.46-8.89-19.44-11.5-29.84
					c-0.33-1.31,1.76-1.59,2.09-0.28c2.39,9.53,5.88,18.68,10.38,27.41c2.28-8.81,4.54-17.62,6.81-26.43
					c-3.19-6.84-5.81-13.88-7.86-21.15c-0.36-1.29,1.57-2.13,1.94-0.83c1.81,6.41,4.07,12.65,6.76,18.72
					c2.25-8.78,4.49-17.55,6.73-26.33c-0.1-0.09-0.19-0.2-0.26-0.34c-2.2-4.41-4.19-8.91-5.99-13.5c-0.49-1.26,1.44-2.1,1.94-0.83
					c1.54,3.95,3.24,7.82,5.08,11.64c1.5-5.88,3-11.76,4.49-17.65c0.33-1.3,2.43-1.05,2.09,0.26c-2.06,8.13-4.13,16.25-6.2,24.37
					c3.09-3.24,6.27-6.39,9.57-9.42c1-0.92,2.31,0.74,1.32,1.65c-4.16,3.82-8.14,7.81-11.96,11.97c-1.83,7.15-3.66,14.3-5.49,21.45
					c-0.01,0.08-0.03,0.16-0.06,0.23c-1.03,4-2.05,7.99-3.08,11.99c7.65-5.23,14.67-11.25,20.96-18.08
					c0.92-0.99,2.57,0.32,1.65,1.32c-6.97,7.56-14.79,14.2-23.4,19.84c-2.63,10.19-5.27,20.37-7.92,30.55
					c6.15-4,12.3-8.01,18.45-12.01c1.13-0.73,2.45,0.91,1.32,1.65c-6.85,4.46-13.7,8.92-20.55,13.38
					c-3.97,15.26-7.96,30.53-11.99,45.78C359.99,334.16,358.03,333.37,358.37,332.07z"/>
			</g>
			<g id="XMLID_224_">
				
					<linearGradient id="XMLID_9_" gradientUnits="userSpaceOnUse" x1="298.6185" y1="218.8526" x2="415.291" y2="377.9517" gradientTransform="matrix(-0.9967 0.0806 0.0806 0.9967 720.9672 -27.6141)">
					<stop  offset="0" style="stop-color:#FDDA42"/>
					<stop  offset="1" style="stop-color:#E5A003"/>
				</linearGradient>
				<path id="XMLID_255_" class="st7" d="M322.45,333.18c1.78-11.06,8.65-21.28,19.08-25.87c6.2-2.73,15.6-2.06,19.44-8.57
					c3.3-5.61,1.8-12.75,2.93-18.92c2-10.91,9.55-20.59,19.57-25.31c6.82-3.21,15.05-3.12,21.2-7.76
					c5.67-4.28,8.59-11.11,12.04-17.1c4.98-8.63,15.84-19.77,26.6-13.11c9.11,5.64,8.36,18.87,5.58,27.7
					c-0.99,3.16-2.32,6.21-3.96,9.08c-1.89,3.32-4.56,6.2-6.27,9.61c-1.81,3.62-3.49,7.97-3.67,12.03
					c-0.17,3.67,0.41,7.34,0.22,11.02c-0.69,13.52-8.43,25.61-18.19,34.59c-6.49,5.98-11.43,11-13.39,19.91
					c-1.52,6.92-1.88,14.14-4.65,20.73c-5.47,13-18.69,19.97-32.2,21.23c-0.37,0.03-0.71-0.1-0.97-0.33
					C340.74,381.5,319.42,358.5,322.45,333.18z"/>
				
					<linearGradient id="XMLID_10_" gradientUnits="userSpaceOnUse" x1="358.4534" y1="377.0198" x2="358.4534" y2="243.9144" gradientTransform="matrix(-0.9967 0.0806 0.0806 0.9967 720.9672 -27.6141)">
					<stop  offset="0" style="stop-color:#FDDA42"/>
					<stop  offset="1" style="stop-color:#E5A003"/>
				</linearGradient>
				<path id="XMLID_364_" class="st8" d="M436.94,231.55c-4.13,6.42-8.27,12.83-12.41,19.24c-0.67-5.28-1.15-10.58-1.4-15.91
					c-0.08-1.71-2.73-1.49-2.64,0.21c0.3,6.19,0.88,12.35,1.74,18.49c0.03,0.2,0.09,0.37,0.18,0.51
					c-6.18,9.57-12.36,19.14-18.55,28.7c-0.78-8.32-0.97-16.66-0.57-25.02c0.08-1.7-2.56-1.47-2.64,0.21
					c-0.46,9.48-0.15,18.92,0.92,28.35c-6.22,9.6-12.44,19.19-18.68,28.78c-1.87-12.2-2.37-24.5-1.41-36.82
					c0.13-1.69-2.47-2.19-2.61-0.5c-1.05,13.45-0.48,26.87,1.78,40.17c0.02,0.14,0.07,0.26,0.12,0.38
					c-6.66,10.23-13.32,20.46-20,30.67c-1.78-11.65-2.08-23.4-0.82-35.15c0.18-1.69-2.42-2.19-2.61-0.5c-1.39,13-0.99,26,1.26,38.88
					c0,0.02,0.01,0.03,0.01,0.05c-7.02,10.74-14.06,21.47-21.11,32.2l3.32-0.27c9.59-14.6,19.16-29.22,28.71-43.85
					c9.95-2.58,19.9-5.15,29.85-7.73c1.65-0.43,0.73-2.92-0.91-2.49c-8.93,2.31-17.87,4.62-26.8,6.94
					c7.23-11.08,14.45-22.16,21.65-33.25c12.51-3.27,24.49-8.07,35.82-14.29c1.5-0.82,0.05-3.05-1.44-2.23
					c-10.23,5.62-21,10-32.21,13.17c2.83-4.35,5.65-8.71,8.47-13.06c0.06-0.07,0.12-0.16,0.16-0.25
					c5.05-7.79,10.09-15.57,15.12-23.37c6.21-3.43,12.55-6.6,19.04-9.48c1.55-0.69,0.65-3.19-0.91-2.49
					c-5.15,2.29-10.2,4.77-15.18,7.41c5.72-8.85,11.43-17.71,17.14-26.57C440.26,231.26,437.85,230.13,436.94,231.55z"/>
			</g>
			<g id="XMLID_294_">
				<circle id="XMLID_297_" class="st3" cx="156.05" cy="147.66" r="20.54"/>
				<path id="XMLID_296_" class="st3" d="M177.79,125.08c0,4.79,3.88,8.67,8.67,8.67c-4.79,0-8.67,3.88-8.67,8.67
					c0-4.79-3.88-8.67-8.67-8.67C173.91,133.75,177.79,129.86,177.79,125.08z"/>
			</g>
			<g id="XMLID_199_">
				<path id="XMLID_229_" class="st9" d="M366.92,369.74H130.78c-2.76,0-5-2.24-5-5V220.37c0-2.76,2.24-5,5-5h236.14
					c2.76,0,5,2.24,5,5v144.36C371.92,367.5,369.68,369.74,366.92,369.74z"/>
				<rect id="XMLID_217_" x="135.04" y="224.27" class="st10" width="227.63" height="136.56"/>
				<g id="XMLID_202_">
					<path id="XMLID_216_" class="st11" d="M126.7,383.29H371c5.88,0,10.65-4.77,10.65-10.65v-2.91H116.04v2.91
						C116.04,378.52,120.81,383.29,126.7,383.29z"/>
					<path id="XMLID_211_" class="st11" d="M270.4,376.51h-43.1c-2.55,0-4.61-2.06-4.61-4.61v-2.17h52.32v2.17
						C275.01,374.45,272.95,376.51,270.4,376.51z"/>
					<path id="XMLID_203_" class="st12" d="M129.6,383.29H368.1c3.83,0,7.29-1.6,9.75-4.15h-258
						C122.32,381.7,125.77,383.29,129.6,383.29z"/>
				</g>
			</g>
			<rect id="XMLID_186_" x="135.09" y="290.47" class="st13" width="209.16" height="20.39"/>
			<rect id="XMLID_225_" x="135.09" y="314.44" class="st14" width="110.1" height="37.05"/>
			<rect id="XMLID_181_" x="253.89" y="314.44" class="st13" width="90.36" height="6.46"/>
			<rect id="XMLID_183_" x="253.89" y="324.64" class="st13" width="90.36" height="6.46"/>
			<rect id="XMLID_153_" x="253.89" y="334.83" class="st13" width="90.36" height="6.46"/>
			<rect id="XMLID_87_" x="253.89" y="345.03" class="st13" width="90.36" height="6.46"/>
			<g id="XMLID_196_">
				<path id="XMLID_159_" class="st11" d="M372.18,185.15H227.14c-2.21,0-4-1.79-4-4v-43.48c0-2.21,1.79-4,4-4h145.04
					c2.21,0,4,1.79,4,4v43.48C376.18,183.36,374.39,185.15,372.18,185.15z"/>
				<polygon id="XMLID_169_" class="st11" points="276.8,179.12 273.47,207.02 292.77,182.45 				"/>
				<g id="XMLID_175_">
					<g id="XMLID_170_">
						<rect id="XMLID_168_" x="229.67" y="141.97" class="st15" width="98.7" height="5.43"/>
						<rect id="XMLID_171_" x="229.67" y="151.79" class="st15" width="98.7" height="5.43"/>
						<rect id="XMLID_172_" x="229.67" y="161.6" class="st15" width="98.7" height="5.43"/>
						<rect id="XMLID_173_" x="229.67" y="171.41" class="st15" width="72.71" height="5.43"/>
					</g>
					<g id="XMLID_174_" class="st16">
						<path id="XMLID_177_" class="st11" d="M348.86,157.02l-6.48,2.93l6.48,2.93v3.79l-10.01-4.73v-4l10.01-4.73V157.02z"/>
						<path id="XMLID_184_" class="st11" d="M355.98,147.18h3.43l-6.7,24.46h-3.43L355.98,147.18z"/>
						<path id="XMLID_191_" class="st11" d="M369.65,157.95v4l-10.01,4.73v-3.79l6.48-2.93l-6.48-2.93v-3.79L369.65,157.95z"/>
					</g>
				</g>
			</g>
			<path id="XMLID_188_" class="st9" d="M184.54,154.63c-11.29,0-20.44,9.15-20.44,20.44c0,17.64,20.44,31.01,20.44,31.01
				s20.44-13.87,20.44-31.01C204.98,163.79,195.83,154.63,184.54,154.63z M184.54,185.5c-5.76,0-10.43-4.67-10.43-10.43
				c0-5.76,4.67-10.43,10.43-10.43c5.76,0,10.43,4.67,10.43,10.43C194.97,180.83,190.3,185.5,184.54,185.5z"/>
			<g id="XMLID_193_">
				<g id="XMLID_371_">
					<g id="XMLID_388_">
						<path id="XMLID_389_" class="st9" d="M90.72,383.29L90.72,383.29c11.9,0,21.54-9.65,21.54-21.54v-16.43l0,0
							c-13.89,5.22-29.2,5.22-43.09,0l0,0v16.43C69.18,373.65,78.83,383.29,90.72,383.29z"/>
					</g>
					<g id="XMLID_386_">
						<path id="XMLID_387_" class="st9" d="M112.27,345.32c-13.89,5.22-29.2,5.22-43.09,0C83.07,340.1,98.38,340.1,112.27,345.32z"
							/>
					</g>
					<g id="XMLID_384_" class="st17">
						<path id="XMLID_385_" class="st9" d="M112.27,345.32c-13.89,5.22-29.2,5.22-43.09,0C83.07,340.1,98.38,340.1,112.27,345.32z"
							/>
					</g>
					<g id="XMLID_382_">
						<path id="XMLID_383_" class="st18" d="M112.27,349.66c-13.89,5.22-29.2,5.22-43.09,0C83.07,344.45,98.38,344.45,112.27,349.66
							z"/>
					</g>
					<g id="XMLID_380_">
						<path id="XMLID_381_" class="st9" d="M90.72,383.29L90.72,383.29c11.9,0,21.54-9.65,21.54-21.54v-16.43l0,0
							c-13.89,5.22-29.2,5.22-43.09,0l0,0v16.43C69.18,373.65,78.83,383.29,90.72,383.29z"/>
					</g>
					<g id="XMLID_372_">
						<path id="XMLID_373_" class="st9" d="M68.26,366.67h3.64v-4.09h-3.64c-1.94,0-3.52-1.58-3.52-3.52s1.58-3.52,3.52-3.52h2.87
							v-4.09h-2.87c-4.19,0-7.6,3.41-7.6,7.6S64.06,366.67,68.26,366.67z"/>
					</g>
				</g>
				<g id="XMLID_360_">
					<g id="XMLID_47_">
						<g id="XMLID_48_">
							<path id="XMLID_49_" class="st11" d="M112.27,352.09v9.05c-13.89,5.22-29.2,5.22-43.09,0v-9.05
								C83.07,357.3,98.38,357.3,112.27,352.09z"/>
						</g>
					</g>
				</g>
				<linearGradient id="XMLID_19_" gradientUnits="userSpaceOnUse" x1="81.1985" y1="351.607" x2="81.1985" y2="279.1311">
					<stop  offset="0" style="stop-color:#FDDA42"/>
					<stop  offset="1" style="stop-color:#E5A003"/>
				</linearGradient>
				<path id="XMLID_351_" class="st19" d="M59.79,283.86c1.14-2.4,2.87-4.61,5.23-5.85c2.35-1.24,5.38-1.38,7.61,0.07
					c4.78,3.11,4.1,11.55,9.32,13.85c4.51,1.99,10.51-2.21,14.38,0.85c2.35,1.86,2.39,5.49,1.29,8.28c-1.1,2.79-3.07,5.16-4.21,7.93
					c-1.14,2.77-1.21,6.38,1.05,8.34c2.36,2.04,6.28,1.49,8.46,3.72c2.01,2.05,1.52,5.59-0.11,7.95c-1.64,2.37-4.13,3.97-6.25,5.91
					c-3.53,3.23-6.08,7.51-7.23,12.16c0,0-0.08-5.45,1.89-9.51c0.78-1.61,2.24-2.93,2.51-4.7c0.38-2.5-1.49-4.88-3.75-6.02
					c-2.26-1.13-4.85-1.33-7.35-1.69c-3.21-0.46-6.53-1.32-8.88-3.56c-2.34-2.24-3.28-6.22-1.27-8.77c0.6-0.76,1.42-1.35,1.9-2.2
					c1.31-2.3-0.56-5.24-2.89-6.49c-2.33-1.25-5.08-1.54-7.41-2.78c-2.92-1.56-4.95-4.56-5.63-7.81
					C57.76,290.28,58.36,286.85,59.79,283.86z"/>
			</g>
			<g id="XMLID_295_">
				<path id="XMLID_31_" class="st11" d="M372.36,278.99H101.24c-1.1,0-2-0.9-2-2v-43.75c0-1.1,0.9-2,2-2h271.12c1.1,0,2,0.9,2,2
					v43.75C374.36,278.1,373.46,278.99,372.36,278.99z"/>
				<path id="XMLID_37_" class="st11" d="M147.75,278.99h-46.51c-1.1,0-2-0.9-2-2v-43.75c0-1.1,0.9-2,2-2h46.51V278.99z"/>
				<g id="XMLID_90_" class="st17">
					<g id="XMLID_140_">
						<path id="XMLID_155_" class="st13" d="M156.87,261.55l1.46-3.28c1.39,0.92,3.37,1.55,5.18,1.55c1.84,0,2.56-0.52,2.56-1.28
							c0-2.49-8.93-0.67-8.93-6.51c0-2.8,2.29-5.09,6.95-5.09c2.04,0,4.15,0.47,5.7,1.37l-1.37,3.3c-1.5-0.81-2.98-1.21-4.35-1.21
							c-1.86,0-2.53,0.63-2.53,1.41c0,2.4,8.91,0.61,8.91,6.39c0,2.74-2.29,5.07-6.95,5.07
							C160.91,263.28,158.35,262.59,156.87,261.55z"/>
						<path id="XMLID_151_" class="st13" d="M185.09,259.54v3.43h-12.61v-15.7h12.32v3.43h-7.92v2.65h6.98v3.32h-6.98v2.87H185.09z"
							/>
						<path id="XMLID_148_" class="st13" d="M198.08,259.92h-6.64l-1.23,3.05h-4.53l6.93-15.7h4.37l6.95,15.7h-4.62L198.08,259.92z
							 M196.78,256.64l-2.02-5.03l-2.02,5.03H196.78z"/>
						<path id="XMLID_145_" class="st13" d="M212.06,258.8h-2.42v4.17h-4.44v-15.7h7.18c4.29,0,6.98,2.22,6.98,5.81
							c0,2.31-1.12,4.02-3.07,4.96l3.39,4.94h-4.76L212.06,258.8z M212.1,250.76h-2.47v4.6h2.47c1.84,0,2.76-0.85,2.76-2.29
							C214.86,251.62,213.94,250.76,212.1,250.76z"/>
						<path id="XMLID_143_" class="st13" d="M220.99,255.12c0-4.78,3.66-8.17,8.64-8.17c2.89,0,5.23,1.05,6.75,2.96l-2.83,2.56
							c-0.99-1.19-2.2-1.84-3.7-1.84c-2.58,0-4.37,1.79-4.37,4.49c0,2.69,1.79,4.49,4.37,4.49c1.5,0,2.71-0.65,3.7-1.84l2.83,2.56
							c-1.52,1.91-3.86,2.96-6.75,2.96C224.64,263.28,220.99,259.89,220.99,255.12z"/>
						<path id="XMLID_141_" class="st13" d="M253.29,247.26v15.7h-4.44v-6.12h-6.06v6.12h-4.44v-15.7h4.44v5.9h6.06v-5.9H253.29z"/>
					</g>
				</g>
				<path id="XMLID_272_" class="st9" d="M137.5,267.68l-7.94-7.94c3.15-4.34,2.78-10.45-1.13-14.36c-4.33-4.33-11.37-4.33-15.7,0
					c-4.33,4.33-4.33,11.37,0,15.7c3.91,3.91,10.02,4.27,14.36,1.13l7.94,7.94L137.5,267.68z M114.18,259.64
					c-3.53-3.53-3.53-9.27,0-12.8c3.53-3.53,9.27-3.53,12.81,0s3.53,9.27,0,12.8C123.45,263.17,117.71,263.17,114.18,259.64z"/>
			</g>
			<g id="XMLID_267_">
				<g id="XMLID_257_">
					
						<rect id="XMLID_291_" x="297.16" y="286.45" transform="matrix(0.7071 -0.7071 0.7071 0.7071 -133.5253 308.401)" class="st9" width="16.71" height="57.87"/>
				</g>
				<g id="XMLID_284_" class="st20">
					
						<rect id="XMLID_286_" x="297.16" y="286.45" transform="matrix(0.7071 -0.7071 0.7071 0.7071 -133.5253 308.401)" class="st9" width="16.71" height="57.87"/>
				</g>
				<g id="XMLID_258_">
					<path id="XMLID_287_" class="st9" d="M333.58,328.24l-15.21,15.21c-0.41,0.41-1.08,0.41-1.5,0l-22.09-22.09
						c-0.41-0.41-0.41-1.08,0-1.5l15.21-15.21c0.41-0.41,1.08-0.41,1.5,0l22.09,22.09C333.99,327.15,333.99,327.82,333.58,328.24z"
						/>
				</g>
				<g id="XMLID_288_" class="st17">
					<path id="XMLID_293_" class="st9" d="M333.58,328.24l-15.21,15.21c-0.41,0.41-1.08,0.41-1.5,0l-22.09-22.09
						c-0.41-0.41-0.41-1.08,0-1.5l15.21-15.21c0.41-0.41,1.08-0.41,1.5,0l22.09,22.09C333.99,327.15,333.99,327.82,333.58,328.24z"
						/>
				</g>
				<g id="XMLID_260_">
					<path id="XMLID_261_" class="st9" d="M288.51,298.38c-20.7,20.7-54.39,20.7-75.09,0c-20.7-20.7-20.7-54.39,0-75.09
						c20.7-20.7,54.39-20.7,75.09,0C309.22,243.99,309.22,277.68,288.51,298.38z M220.35,230.22c-16.88,16.88-16.88,44.36,0,61.24
						c16.88,16.88,44.36,16.88,61.24,0c16.89-16.89,16.89-44.36,0-61.24S237.23,213.33,220.35,230.22z"/>
				</g>
				<g id="XMLID_276_" class="st17">
					<path id="XMLID_279_" class="st9" d="M288.51,298.38c-20.7,20.7-54.39,20.7-75.09,0c-20.7-20.7-20.7-54.39,0-75.09
						c20.7-20.7,54.39-20.7,75.09,0C309.22,243.99,309.22,277.68,288.51,298.38z M220.35,230.22c-16.88,16.88-16.88,44.36,0,61.24
						c16.88,16.88,44.36,16.88,61.24,0c16.89-16.89,16.89-44.36,0-61.24S237.23,213.33,220.35,230.22z"/>
				</g>
				<path id="XMLID_270_" class="st21" d="M220.35,230.22c-16.88,16.88-16.88,44.36,0,61.24c16.88,16.88,44.36,16.88,61.24,0
					c16.89-16.89,16.89-44.36,0-61.24S237.23,213.33,220.35,230.22z"/>
				<path id="XMLID_91_" class="st22" d="M220.95,237.18c-10.04,12.34-9.81,34.69-5.82,38.68c3.99,3.99,10.48,3.99,14.47,0
					c3.99-3.99,2.85-25.73,1.8-31.27C229.79,236.03,224.94,233.19,220.95,237.18z"/>
			</g>
		</g>
	</g>
</g>
<g id="DESIGNED_BY_FREEPIK">
</g>
</svg>
